<?xml version="1.0" encoding="utf-8"?>
<!-- Generator: Adobe Illustrator 27.0.0, SVG Export Plug-In . SVG Version: 6.00 Build 0)  -->
<svg version="1.1" id="레이어_1" xmlns="http://www.w3.org/2000/svg" xmlns:xlink="http://www.w3.org/1999/xlink" x="0px"
	 y="0px" viewBox="0 0 768 1366" style="enable-background:new 0 0 768 1366;" xml:space="preserve">
<style type="text/css">
	.st0{fill:none;stroke:#000000;stroke-miterlimit:10;}
</style>
<g>
	<path d="M421.26,378.53h-84.99l3.81-6.36c1.6,0,3.19-0.23,4.77-0.7c1.58-0.46,3.01-1.11,4.3-1.94c1.29-0.82,2.36-1.81,3.22-2.95
		c0.85-1.14,1.38-2.35,1.59-3.64l10.16-72.42c0.21-1.29,0.04-2.51-0.5-3.64c-0.54-1.14-1.34-2.12-2.4-2.95
		c-1.06-0.83-2.33-1.47-3.8-1.94c-1.47-0.46-3.01-0.7-4.61-0.7l-3.38-6.36h83.55l0.47,18.76h-6.67c0.26-1.6,0.26-3.15,0-4.65
		c-0.26-1.5-0.74-2.83-1.43-3.99c-0.7-1.16-1.58-2.08-2.64-2.75c-1.06-0.67-2.24-1.01-3.53-1.01h-26.97c-1.39,0-2.77,0.23-4.11,0.7
		c-1.35,0.46-2.56,1.11-3.64,1.94c-1.09,0.83-1.99,1.81-2.71,2.95c-0.73,1.14-1.19,2.35-1.4,3.64l-4.65,31.59h15.58
		c1.29,0,2.56-0.34,3.8-1.01c1.24-0.67,2.36-1.59,3.37-2.75c1.01-1.16,2.37-2.34,2.52-3.95c0.06-0.59-0.3-1.6-0.04-3.25h7.8
		l-4.42,31.17h-7.8c0.21-1.6,1.6-2.08,1.36-4.65c-0.14-1.51-0.74-2.83-1.43-3.99c-0.7-1.16-1.56-2.08-2.6-2.75
		c-1.03-0.67-2.2-1.01-3.49-1.01h-15.58l-4.65,33.03c-0.21,1.29-0.09,2.51,0.35,3.64c0.44,1.14,1.1,2.12,1.98,2.95
		c0.88,0.83,1.92,1.47,3.14,1.94c1.21,0.47,2.52,0.7,3.92,0.7h29.85c1.29,0,2.56-0.34,3.8-1.01c1.24-0.67,2.36-1.59,3.37-2.75
		c1.01-1.16,1.86-2.48,2.56-3.95c0.7-1.47,1.18-3.04,1.43-4.69h6.67L421.26,378.53z"/>
	<path d="M287.17,285.23c0-0.31,0.09-3.06,0.2-3.91c0.1-0.85,0.31-2,0.62-3.45h9.24l-7.49,21.86l-5.23,1.28
		c0.93-6.82-0.18-10.48-3.33-13.84c-3.16-3.46-7.24-5.19-12.25-5.19c-4.91,0-9.46,1.63-13.65,4.88c-1.97,1.6-3.57,3.4-4.81,5.39
		c-1.24,1.99-2.02,4.18-2.32,6.55c-0.78,6,2.3,11.45,9.23,16.36c3.51,2.22,7.14,4.52,10.89,6.9c3.75,2.38,7.4,4.68,10.97,6.9
		c7.6,5.95,10.72,13.31,9.38,22.1c-0.62,4.7-2.18,8.94-4.69,12.71c-2.51,3.77-5.85,7.11-10.04,10c-7.55,5.07-16.16,8-25.59,7.6
		c-6.15-0.26-12.73-3.06-19.81-7.71c-0.57-0.41-0.93-0.62-1.08-0.62c-0.78,0-1.51,2.41-2.13,5.77h-9.08l7.49-21.71l5.07-1.74
		c-0.26,3.41-0.93,5.4-0.1,7.98c0.83,2.59,1.51,2.9,3.27,4.56c3.67,3.41,8.97,4.69,13.98,4.69c5.79,0,11.04-1.65,15.74-4.96
		c2.33-1.6,4.14-3.45,5.43-5.54c1.29-2.09,2.14-4.46,2.56-7.09c0.93-6.36-1.28-10.04-8.15-14.95l0,0c-1.76-1.03-3.49-2.09-5.19-3.18
		c-1.71-1.09-3.46-2.02-5.27-3.1l0,0c-1.76-1.03-3.53-2.13-5.31-3.3c-1.78-1.16-3.5-2.29-5.16-3.37
		c-7.75-6.1-12.3-13.43-12.05-23.75c0.21-8.46,4.03-17.45,11.27-23.49c13.17-9.76,27.8-6.73,27.8-6.73
		C281.7,274.94,287.17,285.23,287.17,285.23"/>
	<path d="M496.1,378.53l0.93-6.36c1.6,0,3.19-0.23,4.77-0.7c1.58-0.46,3.01-1.11,4.3-1.94c1.29-0.82,2.37-1.81,3.22-2.95
		c0.85-1.14,1.38-2.35,1.59-3.64l10.16-72.42c0.21-1.29,0.04-2.51-0.5-3.64c-0.54-1.14-1.35-2.12-2.41-2.95
		c-1.06-0.83-2.33-1.47-3.8-1.94c-1.47-0.46-3.01-0.7-4.61-0.7l0.93-6.36H552l-0.93,6.36c-1.65,0-3.26,0.23-4.81,0.7
		c-1.55,0.46-2.96,1.11-4.23,1.94c-1.27,0.83-2.33,1.81-3.18,2.95c-0.85,1.14-1.38,2.35-1.59,3.64l-10.24,72.42
		c-0.21,1.29-0.04,2.51,0.5,3.64c0.54,1.14,1.34,2.12,2.4,2.95c1.06,0.83,2.31,1.47,3.76,1.94c1.45,0.47,3,0.7,4.65,0.7l-0.93,6.36
		H496.1z"/>
</g>
<g>
	<g>
		<path d="M327.87,656.16l-3.53-0.61v-1.38h8.21v1.38l-3.9,0.61H327.87z M339.39,654.17l5.26,13.99l-0.8-0.02l4.3-13.97h2.05
			l-5.89,17.29h-1.34c-3.47-8.87-4.41-11.82-5.3-14.65l1.31-0.02l-5.45,14.66h-1.34l-6.44-17.29h3.39l4.73,13.99l-0.79-0.02
			l5.09-13.97H339.39z M334.83,655.55v-1.38h7.97v1.38l-3.42,0.61h-0.77L334.83,655.55z M348.23,656.16l-3.33-0.6v-1.38h6.59v1.38
			l-2.54,0.6H348.23z"/>
		<path d="M368.46,660.62c0,0.82-0.1,1.54-0.25,2.01h-13.33v-1.53h8.46c1.73,0,2.13-0.82,2.13-1.86c0-2.07-1.69-3.9-3.91-3.9
			c-2.26,0-4.85,1.93-4.85,7.08c0,4.56,2.3,6.98,5.84,6.98c2.28,0,3.72-1.03,5-2.52l0.85,0.68c-1.31,2.57-3.63,4.18-6.91,4.18
			c-4.85,0-8.01-3.35-8.01-8.84c0-5.54,3.79-9.18,8.27-9.18C365.52,653.7,368.46,656.26,368.46,660.62z"/>
		<path d="M371.3,669.97l3.86-0.72l-1.21,2c0.07-1.62,0.11-5.33,0.11-7.56v-15.8l-2.94-0.36v-1.27l5.51-1.62l0.51,0.29l-0.14,5.11
			v6.83l0.11,0.47v11.08l-0.39,3.2l-5.41-0.37V669.97z M386.14,662.85c0-4.62-1.88-7.1-4.58-7.1c-1.33,0-3.08,0.66-5.63,3.2
			l-0.32-0.65c2.09-3.21,4.43-4.6,6.92-4.6c3.82,0,6.85,3.27,6.85,8.84c0,5.56-3.19,9.19-7.4,9.19c-2.25,0-4.47-1.02-6.36-4.76
			l0.32-0.58c1.85,2.35,3.75,3.3,5.44,3.3C383.95,669.69,386.14,667.47,386.14,662.85z"/>
		<path d="M392.82,670.34l-0.13-3.95h1.96l0.96,4.28l-1.78-0.82v-1.24c1.28,0.97,2.64,1.47,4.43,1.47c2.73,0,4.02-1.09,4.02-2.73
			c0-1.52-1.06-2.31-3.33-3.13l-1.67-0.61c-2.64-0.96-4.36-2.39-4.36-4.85c0-2.63,2.22-5.05,6.27-5.05c1.95,0,3.48,0.54,5.04,1.47
			l-0.15,3.65h-1.86l-0.74-3.68l1.33,0.59v0.96c-1.16-0.9-2.36-1.36-3.67-1.36c-2.2,0-3.34,0.96-3.34,2.46
			c0,1.58,0.88,2.2,3.33,3.09l1.12,0.4c3.59,1.31,4.96,3.02,4.96,5.27c0,2.73-2.38,5.16-7.01,5.16
			C396.17,671.73,394.59,671.25,392.82,670.34z"/>
		<path d="M410.55,671.25c0.07-1.62,0.11-5.33,0.11-7.56V662c0-1.98-0.04-3.1-0.11-4.54l-2.91-0.32v-1.27l5.56-2.17l0.54,0.36
			l-0.11,4.88v4.75c0,2.23,0.04,5.94,0.11,7.56H410.55z M416.22,669.97v1.28h-8.35v-1.28l3.92-0.72h0.83L416.22,669.97z
			 M409.7,647.41c0-1.39,1.06-2.3,2.42-2.3s2.41,0.92,2.41,2.3c0,1.35-1.06,2.3-2.41,2.3S409.7,648.76,409.7,647.41z"/>
		<path d="M425.71,669.86c0.78,0,1.5-0.32,2.42-1l0.83,0.97c-0.9,1.19-2.39,1.9-4.24,1.9c-2.53,0-4.1-1.3-4.1-4.12
			c0-0.89,0.04-1.65,0.04-3.06v-8.47h-2.98v-1.58l4.45-0.57l-1.47,1.2l1.15-5.86h2.18l-0.28,6.31v11.63
			C423.7,669.07,424.49,669.86,425.71,669.86z M428.6,654.17v1.91h-6.42v-1.91H428.6z"/>
		<path d="M445.64,660.62c0,0.82-0.11,1.54-0.25,2.01h-13.33v-1.53h8.46c1.73,0,2.13-0.82,2.13-1.86c0-2.07-1.69-3.9-3.91-3.9
			c-2.26,0-4.85,1.93-4.85,7.08c0,4.56,2.3,6.98,5.84,6.98c2.28,0,3.72-1.03,5-2.52l0.85,0.68c-1.31,2.57-3.63,4.18-6.91,4.18
			c-4.85,0-8.01-3.35-8.01-8.84c0-5.54,3.79-9.18,8.27-9.18C442.7,653.7,445.64,656.26,445.64,660.62z"/>
	</g>
</g>
<g>
	<g>
		<path d="M352.28,876.52c0,4.51,2.39,6.99,5.75,6.99c2.07,0,3.87-1,4.98-2.76l0.89,0.47c-1,2.99-3.32,4.63-6.7,4.63
			c-4.93,0-8.08-3.44-8.08-8.98c0-5.67,3.98-9.05,8.33-9.05c3.24,0,5.9,2,6.36,4.68c-0.19,0.92-0.74,1.36-1.67,1.36
			c-1.2,0-1.71-0.73-1.96-1.72l-0.87-3.13l1.71,1.34c-1.22-0.64-2.43-0.89-3.44-0.89C354.51,869.44,352.28,871.89,352.28,876.52z"/>
		<path d="M371.69,858.75l0.51,0.29l-0.14,5.11v13.65c0,2.52,0.04,5.04,0.11,7.56h-3.26c0.07-2.52,0.11-5.04,0.11-7.56v-15.79
			l-2.94-0.36v-1.27L371.69,858.75z M374.98,884.08v1.28h-8.91v-1.28l4.03-0.72h0.83L374.98,884.08z"/>
		<path d="M383.49,875.9c1.51-0.54,3.79-1.18,5.59-1.51v1.31c-1.62,0.33-3.74,1.01-4.82,1.44c-3.15,1.23-3.55,2.59-3.55,3.67
			c0,1.9,1.24,2.66,2.87,2.66c1.23,0,1.94-0.46,4.14-2.03l0.76-0.57l0.5,0.74l-1.07,1.08c-2.14,2.14-3.35,3.16-5.57,3.16
			c-2.64,0-4.82-1.52-4.82-4.5C377.52,879.28,378.62,877.65,383.49,875.9z M387.55,882.07v-8.25c0-3.51-0.99-4.38-3.36-4.38
			c-0.83,0-1.9,0.11-3.25,0.64l1.5-1.13l-0.9,3.06c-0.31,1.12-0.89,1.72-1.88,1.72c-0.99,0-1.58-0.54-1.67-1.46
			c0.66-2.75,3.33-4.46,7.02-4.46c3.76,0,5.56,1.71,5.56,6.26v7.66c0,1.57,0.49,2.13,1.3,2.13c0.6,0,0.99-0.32,1.39-0.79l0.73,0.78
			c-0.86,1.4-1.85,1.89-3.13,1.89C388.86,885.73,387.56,884.3,387.55,882.07z"/>
		<path d="M396.05,884.45l-0.13-3.95h1.96l0.96,4.28l-1.78-0.82v-1.24c1.28,0.97,2.64,1.47,4.43,1.47c2.73,0,4.02-1.09,4.02-2.74
			c0-1.52-1.06-2.31-3.33-3.13l-1.67-0.61c-2.64-0.96-4.36-2.39-4.36-4.85c0-2.63,2.22-5.05,6.27-5.05c1.95,0,3.48,0.54,5.04,1.47
			l-0.15,3.65h-1.86l-0.74-3.68l1.33,0.59v0.96c-1.16-0.9-2.36-1.36-3.67-1.36c-2.2,0-3.34,0.96-3.34,2.46
			c0,1.58,0.88,2.2,3.33,3.09l1.12,0.4c3.59,1.31,4.96,3.02,4.96,5.27c0,2.73-2.38,5.16-7.01,5.16
			C399.39,885.83,397.82,885.36,396.05,884.45z"/>
		<path d="M411.67,884.45l-0.13-3.95h1.96l0.96,4.28l-1.78-0.82v-1.24c1.28,0.97,2.64,1.47,4.43,1.47c2.73,0,4.02-1.09,4.02-2.74
			c0-1.52-1.06-2.31-3.33-3.13l-1.67-0.61c-2.64-0.96-4.36-2.39-4.36-4.85c0-2.63,2.22-5.05,6.27-5.05c1.95,0,3.48,0.54,5.04,1.47
			l-0.15,3.65h-1.86l-0.74-3.68l1.33,0.59v0.96c-1.16-0.9-2.36-1.36-3.67-1.36c-2.2,0-3.34,0.96-3.34,2.46
			c0,1.58,0.88,2.2,3.33,3.09l1.12,0.4c3.59,1.31,4.96,3.02,4.96,5.27c0,2.73-2.38,5.16-7.01,5.16
			C415.02,885.83,413.44,885.36,411.67,884.45z"/>
	</g>
</g>
<ellipse class="st0" cx="384.45" cy="658.18" rx="129" ry="47"/>
<ellipse class="st0" cx="386.22" cy="872.29" rx="129" ry="47"/>
</svg>
