<?xml version="1.0" encoding="UTF-8"?>
<svg xmlns="http://www.w3.org/2000/svg" version="1.1" viewBox="0 0 250 100">
  <!-- Generator: Adobe Illustrator 28.7.6, SVG Export Plug-In . SVG Version: 1.2.0 Build 188)  -->
  <g>
    <g id="_레이어_1" data-name="레이어_1">
      <path d="M246.12,97.13H4.36V4.1h241.76v93.03ZM6.36,95.13h237.76V6.1H6.36v89.03Z"/>
      <g>
        <path d="M78.12,64.51c-5.61,0-9.59-4.12-9.59-11.64s3.72-11.79,8.84-11.79c.98,0,2.08.15,3.22.48l1.11,4c.41,1.66,1.26,2.87,3.26,2.87,1.54,0,2.46-.73,2.78-2.27-.76-4.46-5.2-7.8-10.6-7.8-7.24,0-13.88,5.64-13.88,15.08s5.25,14.96,13.47,14.96c5.64,0,9.51-2.74,11.17-7.71l-1.48-.78c-1.85,2.94-4.86,4.6-8.31,4.6Z"/>
        <path d="M100.83,55.01v-22.75l.24-8.51-.85-.49-9.37,2.7v2.12l4.91.6v26.33c0,3.2-.05,6.4-.12,9.61l-4.78.85v2.14h14.85v-2.14l-4.77-.85c-.07-3.2-.12-6.41-.12-9.61Z"/>
        <path d="M133.28,65.1c-1.35,0-2.17-.94-2.17-3.55v-12.76c0-7.59-3-10.43-9.27-10.43s-10.61,2.85-11.71,7.44c.14,1.53,1.13,2.43,2.78,2.43s2.62-1,3.14-2.86l1.14-3.9c1.27-.3,2.36-.39,3.27-.39,3.95,0,5.6,1.45,5.6,7.29v1.49c-2.4.57-4.93,1.32-6.77,1.97-8.11,2.93-9.94,5.64-9.94,9.05,0,4.98,3.64,7.51,8.03,7.51,3.53,0,5.55-1.56,8.82-4.8.52,2.86,2.52,4.63,5.39,4.63,2.13,0,3.78-.81,5.22-3.14l-1.22-1.3c-.66.79-1.31,1.32-2.31,1.32ZM114.66,60.01c0-1.8.67-4.07,5.91-6.11,1.27-.51,3.39-1.22,5.48-1.78v9.16c-3.43,2.45-4.62,3.17-6.6,3.17-2.72,0-4.79-1.27-4.79-4.44Z"/>
        <path d="M152.62,51.01l-1.86-.67c-4.08-1.49-5.55-2.51-5.55-5.15,0-2.5,1.91-4.1,5.57-4.1,1.46,0,2.83.35,4.16,1.02l.96,4.79h3.1l.25-6.09c-2.61-1.56-5.15-2.46-8.41-2.46-6.74,0-10.45,4.03-10.45,8.42,0,4.1,2.87,6.49,7.26,8.09l2.79,1.01c3.79,1.37,5.55,2.68,5.55,5.22,0,2.74-2.14,4.56-6.7,4.56-1.85,0-3.42-.32-4.86-.95l-1.17-5.21h-3.27l.22,6.59c2.95,1.52,5.58,2.31,8.97,2.31,7.72,0,11.69-4.05,11.69-8.6,0-3.76-2.28-6.6-8.26-8.79Z"/>
        <path d="M178.66,51.01l-1.86-.67c-4.08-1.49-5.55-2.51-5.55-5.15,0-2.5,1.91-4.1,5.57-4.1,1.46,0,2.83.35,4.16,1.02l.96,4.79h3.1l.25-6.09c-2.61-1.56-5.15-2.46-8.41-2.46-6.74,0-10.45,4.03-10.45,8.42,0,4.1,2.87,6.49,7.26,8.09l2.79,1.01c3.79,1.37,5.55,2.68,5.55,5.22,0,2.74-2.14,4.56-6.7,4.56-1.85,0-3.42-.32-4.86-.95l-1.17-5.21h-3.27l.22,6.59c2.95,1.52,5.58,2.31,8.97,2.31,7.72,0,11.69-4.05,11.69-8.6,0-3.76-2.28-6.6-8.26-8.79Z"/>
      </g>
    </g>
  </g>
</svg>