<?xml version="1.0" encoding="utf-8"?>
<!-- Generator: Adobe Illustrator 27.0.0, SVG Export Plug-In . SVG Version: 6.00 Build 0)  -->
<svg version="1.1" id="레이어_1" xmlns="http://www.w3.org/2000/svg" xmlns:xlink="http://www.w3.org/1999/xlink" x="0px"
	 y="0px" viewBox="0 0 300 150" style="enable-background:new 0 0 300 150;" xml:space="preserve">
<style type="text/css">
	.st0{fill:none;stroke:#000000;stroke-miterlimit:10;}
</style>
<ellipse class="st0" cx="150.49" cy="75.65" rx="133.5" ry="48.6"/>
<g>
	<g>
		<path d="M119.99,75.75c0,4,2.1,6.2,5.1,6.2c1.8,0,3.5-0.9,4.4-2.5l0.8,0.4c-0.9,2.7-3,4.1-6,4.1c-4.4,0-7.2-3.1-7.2-8
			c0-5.1,3.6-8.1,7.4-8.1c2.9,0,5.3,1.8,5.7,4.2c-0.2,0.8-0.7,1.2-1.5,1.2c-1.1,0-1.5-0.7-1.7-1.5l-0.8-2.8l1.5,1.2
			c-1.1-0.6-2.2-0.8-3.1-0.8C121.99,69.45,119.99,71.65,119.99,75.75z"/>
		<path d="M137.29,59.95l0.5,0.3l-0.1,4.6v12.2c0,2.2,0,4.5,0.1,6.7h-2.9c0.1-2.2,0.1-4.5,0.1-6.7v-14.1l-2.6-0.3v-1.1L137.29,59.95
			z M140.19,82.55v1.1h-7.9v-1.1l3.6-0.6h0.7L140.19,82.55z"/>
		<path d="M147.79,75.25c1.3-0.5,3.4-1.1,5-1.3v1.2c-1.4,0.3-3.3,0.9-4.3,1.3c-2.8,1.1-3.2,2.3-3.2,3.3c0,1.7,1.1,2.4,2.6,2.4
			c1.1,0,1.7-0.4,3.7-1.8l0.7-0.5l0.4,0.7l-1,1c-1.9,1.9-3,2.8-5,2.8c-2.4,0-4.3-1.4-4.3-4C142.49,78.25,143.49,76.75,147.79,75.25z
			 M151.39,80.75v-7.4c0-3.1-0.9-3.9-3-3.9c-0.7,0-1.7,0.1-2.9,0.6l1.3-1l-0.8,2.7c-0.3,1-0.8,1.5-1.7,1.5c-0.9,0-1.4-0.5-1.5-1.3
			c0.6-2.5,3-4,6.3-4c3.4,0,5,1.5,5,5.6v6.8c0,1.4,0.4,1.9,1.2,1.9c0.5,0,0.9-0.3,1.2-0.7l0.7,0.7c-0.8,1.3-1.7,1.7-2.8,1.7
			C152.59,84.05,151.39,82.75,151.39,80.75z"/>
		<path d="M158.99,82.85l-0.1-3.5h1.8l0.9,3.8l-1.6-0.7v-1.1c1.1,0.9,2.4,1.3,4,1.3c2.4,0,3.6-1,3.6-2.4s-0.9-2.1-3-2.8l-1.5-0.5
			c-2.4-0.9-3.9-2.1-3.9-4.3c0-2.3,2-4.5,5.6-4.5c1.7,0,3.1,0.5,4.5,1.3l-0.1,3.3h-1.7l-0.7-3.3l1.2,0.5v0.9c-1-0.8-2.1-1.2-3.3-1.2
			c-2,0-3,0.9-3,2.2c0,1.4,0.8,2,3,2.8l1,0.4c3.2,1.2,4.4,2.7,4.4,4.7c0,2.4-2.1,4.6-6.3,4.6
			C161.99,84.05,160.59,83.65,158.99,82.85z"/>
		<path d="M172.89,82.85l-0.1-3.5h1.8l0.9,3.8l-1.6-0.7v-1.1c1.1,0.9,2.4,1.3,4,1.3c2.4,0,3.6-1,3.6-2.4s-0.9-2.1-3-2.8l-1.5-0.5
			c-2.4-0.9-3.9-2.1-3.9-4.3c0-2.3,2-4.5,5.6-4.5c1.7,0,3.1,0.5,4.5,1.3l-0.1,3.3h-1.7l-0.7-3.3l1.2,0.5v0.9c-1-0.8-2.1-1.2-3.3-1.2
			c-2,0-3,0.9-3,2.2c0,1.4,0.8,2,3,2.8l1,0.4c3.2,1.2,4.4,2.7,4.4,4.7c0,2.4-2.1,4.6-6.3,4.6
			C175.89,84.05,174.49,83.65,172.89,82.85z"/>
	</g>
</g>
</svg>
