<?xml version="1.0" encoding="utf-8"?>
<!-- Generator: Adobe Illustrator 27.0.0, SVG Export Plug-In . SVG Version: 6.00 Build 0)  -->
<svg version="1.1" id="레이어_1" xmlns="http://www.w3.org/2000/svg" xmlns:xlink="http://www.w3.org/1999/xlink" x="0px"
	 y="0px" viewBox="0 0 1280 1024" style="enable-background:new 0 0 1280 1024;" xml:space="preserve">
<style type="text/css">
	.st0{fill:none;stroke:#000000;stroke-miterlimit:10;}
</style>
<path d="M104.43,303.89"/>
<g>
	<g>
		<path d="M498.43,462c0,20.6,10.9,31.88,26.25,31.88c9.43,0,17.67-4.55,22.75-12.61l4.04,2.15c-4.54,13.62-15.13,21.11-30.59,21.11
			c-22.5,0-36.88-15.69-36.88-40.97c0-25.86,18.18-41.31,38.01-41.31c14.78,0,26.94,9.14,29.02,21.35c-0.88,4.21-3.39,6.22-7.6,6.22
			c-5.48,0-7.8-3.33-8.93-7.86l-3.96-14.3l7.81,6.12c-5.56-2.92-11.07-4.07-15.71-4.07C508.62,429.72,498.43,440.9,498.43,462z"/>
		<path d="M587,380.93l2.32,1.33l-0.66,23.31v62.31c0,11.5,0.16,23,0.49,34.5h-14.87c0.33-11.5,0.49-23,0.49-34.5v-72.1l-13.44-1.64
			v-5.82L587,380.93z M602.06,496.53v5.86h-40.68v-5.86l18.4-3.29h3.81L602.06,496.53z"/>
		<path d="M640.86,459.18c6.89-2.44,17.32-5.4,25.51-6.9v5.97c-7.41,1.51-17.06,4.59-21.98,6.57c-14.37,5.6-16.19,11.81-16.19,16.74
			c0,8.68,5.67,12.15,13.11,12.15c5.6,0,8.85-2.09,18.91-9.28l3.48-2.61l2.27,3.39l-4.89,4.92c-9.75,9.78-15.31,14.41-25.44,14.41
			c-12.04,0-21.99-6.93-21.99-20.57C613.64,474.64,618.65,467.19,640.86,459.18z M659.39,487.37v-37.67
			c0-16.01-4.5-19.98-15.32-19.98c-3.79,0-8.68,0.49-14.82,2.92l6.84-5.17l-4.1,13.97c-1.42,5.12-4.04,7.85-8.59,7.85
			c-4.52,0-7.22-2.48-7.6-6.67c2.99-12.55,15.21-20.36,32.06-20.36c17.16,0,25.38,7.79,25.38,28.57v34.95
			c0,7.16,2.25,9.72,5.94,9.72c2.73,0,4.51-1.44,6.33-3.61l3.35,3.57c-3.94,6.4-8.46,8.61-14.3,8.61
			C665.4,504.07,659.47,497.54,659.39,487.37z"/>
		<path d="M698.19,498.23l-0.6-18.04h8.96l4.4,19.54l-8.12-3.75v-5.65c5.83,4.43,12.05,6.73,20.23,6.73
			c12.47,0,18.34-4.98,18.34-12.48c0-6.96-4.82-10.56-15.2-14.3l-7.63-2.78c-12.04-4.4-19.88-10.92-19.88-22.16
			c0-12.02,10.14-23.07,28.61-23.07c8.92,0,15.88,2.46,23.02,6.73l-0.68,16.68h-8.5l-3.37-16.8l6.1,2.7v4.37
			c-5.29-4.09-10.76-6.19-16.76-6.19c-10.02,0-15.26,4.37-15.26,11.21c0,7.23,4.01,10.04,15.19,14.11l5.1,1.83
			c16.38,6,22.63,13.77,22.63,24.07c0,12.46-10.87,23.56-32.02,23.56C713.46,504.54,706.28,502.39,698.19,498.23z"/>
		<path d="M769.5,498.23l-0.6-18.04h8.96l4.4,19.54l-8.12-3.75v-5.65c5.83,4.43,12.05,6.73,20.23,6.73
			c12.47,0,18.34-4.98,18.34-12.48c0-6.96-4.82-10.56-15.2-14.3l-7.63-2.78c-12.04-4.4-19.88-10.92-19.88-22.16
			c0-12.02,10.14-23.07,28.61-23.07c8.92,0,15.88,2.46,23.02,6.73l-0.68,16.68h-8.5l-3.37-16.8l6.1,2.7v4.37
			c-5.29-4.09-10.76-6.19-16.76-6.19c-10.02,0-15.26,4.37-15.26,11.21c0,7.23,4.01,10.04,15.19,14.11l5.1,1.83
			c16.38,6,22.63,13.77,22.63,24.07c0,12.46-10.87,23.56-32.02,23.56C784.77,504.54,777.58,502.39,769.5,498.23z"/>
	</g>
</g>
<ellipse class="st0" cx="653.32" cy="442.74" rx="588.77" ry="214.51"/>
</svg>
