<?xml version="1.0" encoding="UTF-8"?>
<svg xmlns="http://www.w3.org/2000/svg" version="1.1" viewBox="0 0 250 100">
  <!-- Generator: Adobe Illustrator 28.7.6, SVG Export Plug-In . SVG Version: 1.2.0 Build 188)  -->
  <g>
    <g id="_레이어_1" data-name="레이어_1">
      <g>
        <path d="M152.67,89.27h-63.27l2.84-4.73c1.19,0,2.38-.17,3.55-.52,1.17-.35,2.24-.83,3.2-1.44.96-.61,1.76-1.35,2.4-2.19.63-.85,1.03-1.75,1.18-2.71l7.56-53.91c.15-.96.03-1.87-.38-2.71-.4-.85-1-1.58-1.79-2.19-.79-.61-1.73-1.1-2.83-1.44-1.1-.35-2.24-.52-3.43-.52l-2.52-4.73h62.2l.35,13.97h-4.96c.19-1.19.19-2.35,0-3.46-.19-1.12-.55-2.11-1.07-2.97-.52-.86-1.17-1.55-1.96-2.05-.79-.5-1.66-.75-2.63-.75h-20.08c-1.04,0-2.06.17-3.06.52-1,.35-1.91.83-2.71,1.44-.81.62-1.48,1.35-2.02,2.19-.54.85-.89,1.75-1.04,2.71l-3.46,23.52h11.6c.96,0,1.91-.25,2.83-.75.92-.5,1.76-1.18,2.51-2.05.75-.87,1.76-1.74,1.88-2.94.04-.44-.23-1.19-.03-2.42h5.8l-3.29,23.2h-5.8c.15-1.19,1.19-1.55,1.01-3.46-.1-1.13-.55-2.11-1.07-2.97s-1.16-1.55-1.93-2.05c-.77-.5-1.64-.75-2.6-.75h-11.6l-3.46,24.59c-.15.96-.07,1.87.26,2.71.33.85.82,1.58,1.47,2.19.65.62,1.43,1.1,2.34,1.44.9.35,1.88.52,2.92.52h22.22c.96,0,1.91-.25,2.83-.75.92-.5,1.76-1.18,2.51-2.05.75-.86,1.38-1.85,1.9-2.94.52-1.1.88-2.26,1.07-3.49h4.96l-4.39,13.97Z"/>
        <path d="M52.86,19.81c0-.23.07-2.28.15-2.91.08-.63.23-1.49.46-2.57h6.88l-5.58,16.28-3.89.95c.69-5.08-.13-7.8-2.48-10.3-2.35-2.58-5.39-3.87-9.12-3.87s-7.04,1.21-10.16,3.64c-1.46,1.19-2.66,2.53-3.58,4.01-.92,1.48-1.5,3.11-1.73,4.88-.58,4.46,1.71,8.52,6.87,12.18,2.62,1.65,5.32,3.37,8.11,5.14,2.79,1.77,5.51,3.48,8.17,5.14,5.66,4.43,7.98,9.91,6.98,16.45-.46,3.5-1.63,6.66-3.49,9.47-1.87,2.81-4.36,5.29-7.47,7.45-5.62,3.77-12.03,5.95-19.05,5.66-4.58-.19-9.48-2.28-14.75-5.74-.42-.31-.69-.46-.81-.46-.58,0-1.12,1.8-1.59,4.3H0l5.58-16.16,3.78-1.3c-.19,2.54-.69,4.02-.08,5.94.61,1.93,1.12,2.16,2.43,3.39,2.73,2.54,6.68,3.49,10.41,3.49,4.31,0,8.22-1.23,11.72-3.69,1.73-1.19,3.08-2.57,4.04-4.13.96-1.56,1.6-3.32,1.9-5.28.69-4.73-.95-7.47-6.07-11.13h0c-1.31-.77-2.6-1.56-3.87-2.37-1.27-.81-2.58-1.5-3.92-2.31h0c-1.31-.77-2.63-1.59-3.95-2.45-1.33-.87-2.61-1.7-3.84-2.51-5.77-4.54-9.16-10-8.97-17.68.15-6.3,3-12.99,8.39-17.49,9.8-7.27,20.7-5.01,20.7-5.01,10.53,1.35,14.61,9.01,14.61,9.01"/>
        <path d="M208.39,89.27l.69-4.73c1.19,0,2.38-.17,3.55-.52,1.17-.35,2.24-.83,3.2-1.44.96-.61,1.76-1.35,2.4-2.19.64-.85,1.03-1.75,1.18-2.71l7.56-53.91c.15-.96.03-1.87-.37-2.71-.4-.85-1-1.58-1.79-2.19-.79-.61-1.73-1.1-2.83-1.44-1.1-.35-2.24-.52-3.43-.52l.69-4.73h30.77l-.69,4.73c-1.23,0-2.42.17-3.58.52-1.15.35-2.2.83-3.15,1.44-.94.62-1.73,1.35-2.37,2.19-.63.85-1.03,1.75-1.18,2.71l-7.62,53.91c-.15.96-.03,1.87.38,2.71.4.85,1,1.58,1.79,2.19.79.62,1.72,1.1,2.8,1.44,1.08.35,2.23.52,3.46.52l-.69,4.73h-30.77Z"/>
      </g>
    </g>
  </g>
</svg>