<?xml version="1.0" encoding="utf-8"?>
<!-- Generator: Adobe Illustrator 27.0.0, SVG Export Plug-In . SVG Version: 6.00 Build 0)  -->
<svg version="1.1" id="레이어_1" xmlns="http://www.w3.org/2000/svg" xmlns:xlink="http://www.w3.org/1999/xlink" x="0px"
	 y="0px" viewBox="0 0 1280 1024" style="enable-background:new 0 0 1280 1024;" xml:space="preserve">
<path d="M104.43,303.89"/>
<g>
	<path d="M742.69,613.72h-259l11.61-19.38c4.88,0,9.72-0.71,14.53-2.13c4.8-1.42,9.17-3.39,13.11-5.91c3.93-2.51,7.2-5.51,9.81-8.98
		c2.59-3.46,4.21-7.16,4.84-11.11l30.95-220.69c0.63-3.93,0.12-7.64-1.54-11.11c-1.65-3.46-4.1-6.46-7.32-8.98
		c-3.23-2.52-7.09-4.49-11.58-5.91c-4.49-1.42-9.18-2.12-14.06-2.12l-10.31-19.38h254.61l1.42,57.18h-20.32
		c0.78-4.88,0.78-9.61,0-14.17c-0.79-4.57-2.25-8.63-4.37-12.17c-2.13-3.54-4.81-6.34-8.03-8.39c-3.23-2.05-6.82-3.07-10.75-3.07
		h-82.2c-4.25,0-8.43,0.71-12.52,2.12c-4.1,1.42-7.8,3.39-11.11,5.91c-3.31,2.52-6.07,5.52-8.27,8.98
		c-2.21,3.47-3.63,7.17-4.26,11.11l-14.17,96.28h47.49c3.94,0,7.8-1.02,11.58-3.07c3.78-2.05,7.21-4.84,10.28-8.39
		c3.07-3.54,7.22-7.14,7.68-12.05c0.17-1.81-0.92-4.87-0.13-9.91h23.76l-13.47,94.99h-23.76c0.63-4.88,4.87-6.35,4.15-14.18
		c-0.42-4.62-2.24-8.63-4.37-12.17s-4.77-6.34-7.92-8.39c-3.15-2.05-6.7-3.07-10.63-3.07h-47.5l-14.17,100.66
		c-0.63,3.94-0.28,7.64,1.07,11.11c1.34,3.47,3.34,6.46,6.02,8.98c2.68,2.52,5.87,4.49,9.57,5.91c3.7,1.42,7.68,2.13,11.94,2.13
		h90.97c3.94,0,7.8-1.02,11.58-3.07c3.78-2.05,7.21-4.85,10.28-8.39c3.07-3.54,5.67-7.56,7.8-12.05c2.13-4.49,3.58-9.26,4.37-14.3
		h20.32L742.69,613.72z"/>
	<path d="M334.08,329.37c0-0.95,0.28-9.33,0.6-11.93c0.31-2.6,0.95-6.1,1.89-10.52h28.14l-22.84,66.63l-15.94,3.89
		c2.84-20.79-0.55-31.93-10.16-42.17c-9.62-10.55-22.06-15.83-37.34-15.83c-14.97,0-28.82,4.96-41.59,14.89
		c-5.99,4.88-10.87,10.36-14.65,16.42c-3.78,6.07-6.14,12.72-7.09,19.97c-2.36,18.28,7,34.89,28.12,49.86
		c10.71,6.77,21.77,13.79,33.2,21.03c11.42,7.25,22.56,14.26,33.44,21.03c23.15,18.12,32.68,40.56,28.59,67.34
		c-1.89,14.33-6.66,27.25-14.3,38.75c-7.64,11.5-17.84,21.66-30.59,30.48c-23.01,15.44-49.24,24.37-77.98,23.16
		c-18.73-0.79-38.8-9.33-60.38-23.5c-1.73-1.26-2.83-1.89-3.3-1.89c-2.36,0-4.6,7.36-6.49,17.6h-27.67l22.84-66.16l15.46-5.3
		c-0.79,10.39-2.83,16.46-0.32,24.33c2.52,7.88,4.59,8.85,9.95,13.89c11.18,10.39,27.33,14.29,42.61,14.29
		c17.64,0,33.63-5.04,47.97-15.13c7.09-4.88,12.6-10.51,16.54-16.89c3.93-6.38,6.53-13.58,7.8-21.62
		c2.84-19.38-3.89-30.59-24.84-45.55l0,0c-5.36-3.15-10.63-6.38-15.83-9.68c-5.2-3.31-10.55-6.15-16.06-9.45l0,0
		c-5.36-3.15-10.75-6.5-16.19-10.04c-5.43-3.54-10.67-6.97-15.72-10.28c-23.63-18.58-37.5-40.94-36.73-72.39
		c0.63-25.8,12.28-53.17,34.33-71.6c40.12-29.74,84.72-20.5,84.72-20.5C317.4,298.02,334.08,329.37,334.08,329.37"/>
	<path d="M970.78,613.72l2.83-19.38c4.88,0,9.73-0.71,14.53-2.13c4.8-1.42,9.17-3.39,13.11-5.91c3.94-2.51,7.21-5.51,9.8-8.98
		c2.6-3.46,4.21-7.16,4.85-11.11l30.95-220.69c0.63-3.93,0.12-7.64-1.53-11.11c-1.66-3.46-4.1-6.46-7.33-8.98
		c-3.23-2.52-7.09-4.49-11.58-5.91c-4.49-1.42-9.18-2.12-14.06-2.12l2.83-19.38h125.94l-2.83,19.38c-5.04,0-9.92,0.71-14.65,2.12
		c-4.73,1.42-9.02,3.39-12.88,5.91c-3.86,2.52-7.09,5.52-9.69,8.98c-2.6,3.47-4.22,7.17-4.84,11.11l-31.19,220.69
		c-0.63,3.94-0.12,7.64,1.54,11.11c1.65,3.47,4.09,6.46,7.32,8.98c3.23,2.52,7.05,4.49,11.46,5.91c4.41,1.42,9.14,2.13,14.18,2.13
		l-2.83,19.38H970.78z"/>
</g>
</svg>
