<?xml version="1.0" encoding="UTF-8"?>
<svg xmlns="http://www.w3.org/2000/svg" version="1.1" viewBox="0 0 250 100">
  <!-- Generator: Adobe Illustrator 28.7.6, SVG Export Plug-In . SVG Version: 1.2.0 Build 188)  -->
  <g>
    <g id="_레이어_1" data-name="레이어_1">
      <g>
        <path d="M76.27,51.01l-1.86-.67c-4.08-1.49-5.55-2.51-5.55-5.15,0-2.5,1.91-4.1,5.57-4.1,1.46,0,2.83.35,4.16,1.02l.96,4.79h3.1l.25-6.09c-2.61-1.56-5.15-2.46-8.41-2.46-6.74,0-10.45,4.03-10.45,8.42,0,4.1,2.86,6.49,7.26,8.09l2.79,1.01c3.79,1.37,5.55,2.68,5.55,5.22,0,2.74-2.15,4.56-6.7,4.56-1.85,0-3.42-.32-4.86-.95l-1.17-5.21h-3.27l.22,6.59c2.95,1.52,5.58,2.31,8.97,2.31,7.72,0,11.69-4.05,11.69-8.6,0-3.76-2.28-6.6-8.26-8.79Z"/>
        <path d="M116.2,55.01v-5.6c0-7.86-2.52-11.06-7.69-11.06-3.79,0-8.02,2.28-10.95,5.53v-11.63l.24-8.51-.85-.49-9.19,2.7v2.12l4.91.6v26.33c0,2.68-.03,6.62-.09,9.63l-4.51.83v2.14h13.91v-2.14l-4.15-.83c-.06-3.01-.09-6.95-.09-9.63v-8.48c3.19-2.82,5.6-3.89,8.45-3.89,3.53,0,4.94,1.77,4.94,7.26v5.11c0,2.76-.03,6.66-.09,9.64l-4.45.82v2.14h13.92v-2.14l-4.21-.84c-.06-2.98-.09-6.86-.09-9.62Z"/>
        <path d="M138.8,38.35c-7,0-13.77,5.21-13.77,15.13s6.73,14.92,13.77,14.92,13.77-4.99,13.77-14.92-6.89-15.13-13.77-15.13ZM138.8,65.67c-5.23,0-8.1-4.12-8.1-12.18s2.87-12.41,8.1-12.41,8.1,4.35,8.1,12.41-2.98,12.18-8.1,12.18Z"/>
        <path d="M175.51,38.35c-3.21,0-6.27,1.4-9.1,4.5l-.36-3.9-.91-.6-8.36,3.62v2.11l4.74.54c.12,2.4.18,4.23.18,7.53v17.16c0,3.19-.05,6.41-.12,9.64l-4.83.86v2.14h15.44v-2.14l-5.49-.91c-.07-3.26-.12-6.53-.12-9.71v-4.77c2.51,3,5.24,3.97,8.01,3.97,7,0,12.33-5.88,12.33-15.14s-5.05-14.9-11.42-14.9ZM173.39,65c-2.22,0-4.37-.94-6.62-3.08v-16.83c3.08-2.52,5.4-3.32,7.25-3.32,4.39,0,7.52,4.31,7.52,12.01s-3.65,11.23-8.16,11.23Z"/>
      </g>
      <path d="M246.12,97.13H4.36V4.1h241.76v93.03ZM6.36,95.13h237.76V6.1H6.36v89.03Z"/>
    </g>
  </g>
</svg>