<?xml version="1.0" encoding="utf-8"?>
<!-- Generator: Adobe Illustrator 27.0.0, SVG Export Plug-In . SVG Version: 6.00 Build 0)  -->
<svg version="1.1" id="레이어_1" xmlns="http://www.w3.org/2000/svg" xmlns:xlink="http://www.w3.org/1999/xlink" x="0px"
	 y="0px" viewBox="0 0 1280 1024" style="enable-background:new 0 0 1280 1024;" xml:space="preserve">
<style type="text/css">
	.st0{fill:none;stroke:#000000;stroke-miterlimit:10;}
</style>
<path d="M104.43,303.89"/>
<g>
	<g>
		<path d="M436.12,453.21l-13.64-2.36v-5.34h31.76v5.34l-15.08,2.36H436.12z M480.68,445.51l20.34,54.11l-3.1-0.09l16.63-54.02h7.91
			l-22.76,66.87h-5.19c-13.41-34.3-17.07-45.7-20.48-56.65l5.08-0.06l-21.07,56.71h-5.19l-24.9-66.87h13.11l18.31,54.11l-3.07-0.09
			l19.69-54.02H480.68z M463.03,450.85v-5.34h30.82v5.34l-13.24,2.36h-2.96L463.03,450.85z M514.87,453.18L502,450.85v-5.34h25.47
			v5.34l-9.84,2.33H514.87z"/>
		<path d="M593.07,470.43c0,3.19-0.41,5.94-0.96,7.78h-51.55v-5.93h32.73c6.68,0,8.23-3.16,8.23-7.19c0-8-6.55-15.09-15.11-15.09
			c-8.73,0-18.75,7.45-18.75,27.37c0,17.64,8.88,27.01,22.6,27.01c8.83,0,14.38-3.99,19.34-9.75l3.29,2.62
			c-5.05,9.94-14.03,16.16-26.74,16.16c-18.75,0-30.99-12.96-30.99-34.2c0-21.41,14.67-35.52,31.98-35.52
			C581.72,443.68,593.07,453.59,593.07,470.43z"/>
		<path d="M604.07,506.61l14.92-2.78l-4.66,7.75c0.28-6.26,0.42-20.6,0.42-29.24v-61.11l-11.39-1.38v-4.93l21.33-6.26l1.97,1.13
			l-0.56,19.75v26.42l0.42,1.81v42.86L625,513l-20.93-1.42V506.61z M661.46,479.06c0-17.87-7.28-27.46-17.72-27.46
			c-5.14,0-11.93,2.54-21.77,12.39l-1.25-2.49c8.07-12.41,17.13-17.81,26.76-17.81c14.78,0,26.5,12.63,26.5,34.17
			c0,21.5-12.35,35.55-28.61,35.55c-8.72,0-17.28-3.95-24.59-18.42l1.25-2.25c7.15,9.1,14.49,12.78,21.05,12.78
			C652.99,505.51,661.46,496.93,661.46,479.06z"/>
		<path d="M687.31,508.05l-0.5-15.28h7.6l3.72,16.55l-6.88-3.17v-4.79c4.94,3.75,10.21,5.7,17.14,5.7
			c10.57,0,15.54-4.22,15.54-10.58c0-5.9-4.08-8.95-12.88-12.12l-6.47-2.36c-10.2-3.72-16.85-9.25-16.85-18.78
			c0-10.18,8.6-19.55,24.24-19.55c7.56,0,13.45,2.08,19.51,5.7l-0.58,14.13h-7.2l-2.85-14.24l5.17,2.29v3.71
			c-4.48-3.46-9.12-5.24-14.2-5.24c-8.5,0-12.93,3.7-12.93,9.5c0,6.13,3.4,8.51,12.87,11.96l4.33,1.55
			c13.88,5.08,19.17,11.67,19.17,20.4c0,10.55-9.21,19.96-27.13,19.96C700.25,513.4,694.16,511.57,687.31,508.05z"/>
		<path d="M755.89,511.57c0.28-6.26,0.42-20.6,0.42-29.24v-6.55c0-7.66-0.14-11.97-0.42-17.54l-11.26-1.25v-4.91l21.49-8.41
			l2.11,1.4l-0.42,18.88v18.38c0,8.63,0.14,22.97,0.42,29.24H755.89z M777.8,506.61v4.96h-32.3v-4.96l15.18-2.78h3.23L777.8,506.61z
			 M752.57,419.36c0-5.36,4.11-8.9,9.34-8.9c5.23,0,9.34,3.54,9.34,8.9c0,5.23-4.11,8.9-9.34,8.9
			C756.68,428.26,752.57,424.58,752.57,419.36z"/>
		<path d="M814.48,506.19c3.03,0,5.79-1.24,9.36-3.85l3.21,3.74c-3.49,4.6-9.25,7.33-16.39,7.33c-9.78,0-15.84-5.05-15.84-15.94
			c0-3.43,0.14-6.4,0.14-11.83v-32.76h-11.54v-6.12l17.22-2.22l-5.71,4.65l4.44-22.65h8.42l-1.07,24.4v44.99
			C806.73,503.13,809.79,506.19,814.48,506.19z M825.68,445.51v7.37h-24.83v-7.37H825.68z"/>
		<path d="M891.57,470.43c0,3.19-0.41,5.94-0.96,7.78h-51.55v-5.93h32.73c6.68,0,8.23-3.16,8.23-7.19c0-8-6.55-15.09-15.11-15.09
			c-8.73,0-18.75,7.45-18.75,27.37c0,17.64,8.88,27.01,22.6,27.01c8.83,0,14.38-3.99,19.34-9.75l3.29,2.62
			c-5.05,9.94-14.03,16.16-26.74,16.16c-18.75,0-30.99-12.96-30.99-34.2c0-21.41,14.67-35.52,31.98-35.52
			C880.21,443.68,891.57,453.59,891.57,470.43z"/>
	</g>
</g>
<ellipse class="st0" cx="654.94" cy="461.03" rx="498.89" ry="181.77"/>
</svg>
