<?xml version="1.0" encoding="utf-8"?>
<!-- Generator: Adobe Illustrator 27.0.0, SVG Export Plug-In . SVG Version: 6.00 Build 0)  -->
<svg version="1.1" id="레이어_1" xmlns="http://www.w3.org/2000/svg" xmlns:xlink="http://www.w3.org/1999/xlink" x="0px"
	 y="0px" viewBox="0 0 300 150" style="enable-background:new 0 0 300 150;" xml:space="preserve">
<style type="text/css">
	.st0{fill:none;stroke:#000000;stroke-miterlimit:10;}
</style>
<ellipse class="st0" cx="149.91" cy="75.53" rx="133.5" ry="48.6"/>
<g>
	<g>
		<path d="M98.21,70.13l-3.1-0.5v-1.2h7.3v1.2l-3.5,0.5H98.21z M108.51,68.33l4.7,12.5h-0.7l3.8-12.5h1.8l-5.2,15.4h-1.2
			c-3.1-7.9-3.9-10.5-4.7-13.1h1.2l-4.9,13.1h-1.2l-5.7-15.4h3l4.2,12.5h-0.7l4.5-12.5H108.51z M104.41,69.53v-1.2h7.1v1.2l-3.1,0.5
			h-0.7L104.41,69.53z M116.31,70.13l-3-0.5v-1.2h5.9v1.2l-2.3,0.5H116.31z"/>
		<path d="M134.41,74.03c0,0.7-0.1,1.4-0.2,1.8h-11.9v-1.4h7.5c1.5,0,1.9-0.7,1.9-1.7c0-1.8-1.5-3.5-3.5-3.5c-2,0-4.3,1.7-4.3,6.3
			c0,4.1,2,6.2,5.2,6.2c2,0,3.3-0.9,4.5-2.2l0.8,0.6c-1.2,2.3-3.2,3.7-6.2,3.7c-4.3,0-7.1-3-7.1-7.9s3.4-8.2,7.4-8.2
			C131.71,67.93,134.41,70.23,134.41,74.03z"/>
		<path d="M136.91,82.43l3.4-0.6l-1.1,1.8c0.1-1.4,0.1-4.8,0.1-6.7v-14.1l-2.6-0.3v-1.1l4.9-1.4l0.5,0.3l-0.1,4.6v6.1l0.1,0.4v9.9
			l-0.3,2.9l-4.8-0.3v-1.5H136.91z M150.11,76.03c0-4.1-1.7-6.3-4.1-6.3c-1.2,0-2.8,0.6-5,2.9l-0.3-0.6c1.9-2.9,4-4.1,6.2-4.1
			c3.4,0,6.1,2.9,6.1,7.9s-2.8,8.2-6.6,8.2c-2,0-4-0.9-5.7-4.2l0.3-0.5c1.6,2.1,3.3,2.9,4.9,2.9
			C148.21,82.13,150.11,80.13,150.11,76.03z"/>
		<path d="M156.11,82.73l-0.1-3.5h1.8l0.9,3.8l-1.6-0.7v-1.1c1.1,0.9,2.4,1.3,4,1.3c2.4,0,3.6-1,3.6-2.4s-0.9-2.1-3-2.8l-1.5-0.5
			c-2.4-0.9-3.9-2.1-3.9-4.3c0-2.3,2-4.5,5.6-4.5c1.7,0,3.1,0.5,4.5,1.3l-0.1,3.3h-1.8l-0.7-3.3l1.2,0.5v0.9c-1-0.8-2.1-1.2-3.3-1.2
			c-2,0-3,0.9-3,2.2c0,1.4,0.8,2,3,2.8l1,0.4c3.2,1.2,4.4,2.7,4.4,4.7c0,2.4-2.1,4.6-6.3,4.6
			C159.11,83.93,157.71,83.53,156.11,82.73z"/>
		<path d="M171.91,83.53c0.1-1.4,0.1-4.8,0.1-6.7v-1.5c0-1.8,0-2.8-0.1-4l-2.6-0.3v-1.1l5-1.9l0.5,0.3l-0.1,4.4v4.2
			c0,2,0,5.3,0.1,6.7h-2.9V83.53z M177.01,82.43v1.1h-7.5v-1.1l3.5-0.6h0.7L177.01,82.43z M171.11,62.33c0-1.2,0.9-2.1,2.2-2.1
			c1.2,0,2.2,0.8,2.2,2.1c0,1.2-0.9,2.1-2.2,2.1C172.11,64.33,171.11,63.53,171.11,62.33z"/>
		<path d="M185.41,82.33c0.7,0,1.3-0.3,2.2-0.9l0.7,0.9c-0.8,1.1-2.1,1.7-3.8,1.7c-2.3,0-3.7-1.2-3.7-3.7c0-0.8,0-1.5,0-2.7v-7.6
			h-2.7v-1.4l4-0.5l-1.3,1.1l1-5.2h1.9l-0.2,5.6v10.3C183.61,81.63,184.31,82.33,185.41,82.33z M188.01,68.33v1.7h-5.7v-1.7H188.01z
			"/>
		<path d="M203.21,74.03c0,0.7-0.1,1.4-0.2,1.8h-11.9v-1.4h7.5c1.5,0,1.9-0.7,1.9-1.7c0-1.8-1.5-3.5-3.5-3.5s-4.3,1.7-4.3,6.3
			c0,4.1,2,6.2,5.2,6.2c2,0,3.3-0.9,4.5-2.2l0.8,0.6c-1.2,2.3-3.2,3.7-6.2,3.7c-4.3,0-7.1-3-7.1-7.9s3.4-8.2,7.4-8.2
			C200.61,67.93,203.21,70.23,203.21,74.03z"/>
	</g>
</g>
</svg>
